<?xml version="1.0" encoding="UTF-8"?>
<svg id="Layer_3" data-name="Layer 3" xmlns="http://www.w3.org/2000/svg" width="2000" height="2000" viewBox="0 0 2000 2000">
  <rect width="2000" height="2000" fill="#fff" stroke-width="0"/>
  <g>
    <path d="M1002.45,1322.15c-49.68,0-95.52-7.98-137.51-23.95-42-15.97-78.51-38.59-109.56-67.87-31.05-29.27-55.16-63.43-72.31-102.47-17.16-39.03-25.73-81.91-25.73-128.64s8.57-89.6,25.73-128.64c17.15-39.03,41.26-73.19,72.31-102.47,31.05-29.28,67.56-51.9,109.56-67.87,41.99-15.97,87.83-23.95,137.51-23.95s96.26,7.98,137.96,23.95c41.69,15.97,77.92,38.59,108.68,67.87,30.74,29.27,54.85,63.43,72.3,102.47,17.44,39.03,26.17,81.92,26.17,128.64s-8.73,89.76-26.17,129.08c-17.45,39.34-41.56,73.5-72.3,102.47-30.76,28.98-66.98,51.45-108.68,67.43-41.7,15.97-87.69,23.95-137.96,23.95ZM1002.45,1176.65c23.65,0,45.69-4.13,66.1-12.42,20.4-8.28,38.15-20.25,53.23-35.93,15.08-15.66,26.91-34.45,35.49-56.33,8.57-21.88,12.87-46.13,12.87-72.75s-4.3-51.59-12.87-73.19c-8.58-21.58-20.4-40.21-35.49-55.89-15.08-15.66-32.83-27.64-53.23-35.93-20.4-8.27-42.44-12.42-66.1-12.42s-45.69,4.15-66.09,12.42c-20.41,8.29-38.15,20.27-53.23,35.93-15.08,15.68-26.92,34.31-35.49,55.89-8.58,21.6-12.87,46-12.87,73.19s4.28,50.87,12.87,72.75c8.56,21.88,20.4,40.67,35.49,56.33,15.08,15.68,32.82,27.65,53.23,35.93,20.4,8.29,42.43,12.42,66.09,12.42Z" fill="#000" stroke-width="0"/>
    <path d="M1690.34,722.75c-7.15,62.71-39.08,119.84-88.69,158.76l-103.78,81.13c-35.57,27.81-88.21,8.49-96.88-35.81-2.42-12.37-5.52-24.53-9.28-36.47-14.87-47.18-38.03-89.62-69.45-127.3-31.42-37.68-69.96-68.42-115.62-92.26-45.71-23.8-97.37-38.96-154.96-45.52-56.96-6.49-110.52-3.32-160.73,9.55-50.22,12.91-95.05,34.15-134.46,63.77-39.41,29.61-71.52,65.75-96.31,108.41-6.2,10.66-11.81,21.68-16.84,33.05-18.33,41.43-74.13,48.6-102.61,13.37l-82.63-102.21c-39.53-49.07-57.84-111.93-50.69-174.64,19.73-173.14,214.19-265.59,361.03-171.38l189.72,121.91c61.45,39.55,137.76,48.24,206.67,23.55l212.33-76.1c35.8-12.86,71.75-16.57,105.82-12.68,122.89,14,222.77,125.54,207.35,260.89Z" fill="#000" stroke-width="0"/>
    <path d="M1593.4,1424.67c7.49-62.67-10.46-125.63-49.82-174.93l-82.42-102.87c-28.25-35.26-83.98-28.59-102.64,12.52-5.21,11.48-11.03,22.6-17.45,33.35-25.36,42.49-57.7,78.44-96.99,107.87-39.29,29.43-83.92,50.46-133.91,63.14-50.02,12.62-103.84,15.47-161.46,8.59-56.99-6.81-108.44-22.24-154.39-46.33-45.95-24.14-84.73-55.14-116.3-93.04-31.57-37.9-54.53-80.46-68.84-127.69-3.58-11.81-6.51-23.82-8.79-36.04-8.31-44.54-61.02-64.37-96.88-36.65l-104.06,80.42c-49.82,38.64-82.14,95.59-89.63,158.26-20.68,173.03,147.47,307.81,312.24,249.97l212.93-74.91c68.98-24.32,145.33-15.2,206.77,24.71l189.33,122.98c31.91,20.76,66.08,32.65,100.18,36.73,122.95,14.69,245.96-70.83,262.13-206.09Z" fill="#000" stroke-width="0"/>
  </g>
</svg>