<?xml version="1.0" encoding="UTF-8"?>
<svg id="Layer_1" data-name="Layer 1" xmlns="http://www.w3.org/2000/svg" width="2000" height="2000" viewBox="0 0 2000 2000">
  <rect width="2000" height="2000" fill="#fff" stroke-width="0"/>
  <g>
    <g>
      <path d="M427.45,1344.61c-12.24,0-23.54-1.97-33.89-5.9-10.35-3.94-19.35-9.51-27-16.73-7.65-7.22-13.6-15.63-17.82-25.25-4.23-9.62-6.34-20.19-6.34-31.71s2.11-22.09,6.34-31.71c4.23-9.62,10.17-18.04,17.82-25.25,7.65-7.22,16.65-12.79,27-16.73,10.35-3.94,21.65-5.9,33.89-5.9s23.73,1.97,34,5.9c10.28,3.94,19.21,9.51,26.79,16.73,7.58,7.22,13.52,15.63,17.82,25.25,4.3,9.62,6.45,20.19,6.45,31.71s-2.15,22.12-6.45,31.81c-4.3,9.7-10.24,18.11-17.82,25.25-7.58,7.14-16.51,12.68-26.79,16.62-10.28,3.94-21.61,5.9-34,5.9ZM427.45,1308.75c5.83,0,11.26-1.02,16.29-3.06,5.03-2.04,9.4-4.99,13.12-8.86,3.72-3.86,6.63-8.49,8.75-13.88,2.11-5.39,3.17-11.37,3.17-17.93s-1.06-12.72-3.17-18.04c-2.11-5.32-5.03-9.91-8.75-13.77-3.72-3.86-8.09-6.81-13.12-8.86-5.03-2.04-10.46-3.06-16.29-3.06s-11.26,1.02-16.29,3.06c-5.03,2.04-9.4,5-13.12,8.86-3.72,3.86-6.63,8.46-8.75,13.77-2.11,5.32-3.17,11.34-3.17,18.04s1.05,12.54,3.17,17.93c2.11,5.39,5.03,10.02,8.75,13.88,3.72,3.86,8.09,6.82,13.12,8.86,5.03,2.04,10.46,3.06,16.29,3.06Z" fill="#000" stroke-width="0"/>
      <path d="M578.54,1341.55h-43.29v-153.06h120.04v33.45h-76.75v119.61ZM575.48,1255.62h70.63v33.45h-70.63v-33.45Z" fill="#000" stroke-width="0"/>
      <path d="M718.92,1341.55h-43.29v-153.06h120.04v33.45h-76.75v119.61ZM715.86,1255.62h70.63v33.45h-70.63v-33.45Z" fill="#000" stroke-width="0"/>
      <path d="M879.63,1341.55v-153.06h69.97c13.99,0,26.06,2.26,36.19,6.78,10.13,4.52,17.96,11.04,23.51,19.57,5.54,8.53,8.31,18.62,8.31,30.28s-2.77,21.47-8.31,29.85c-5.54,8.38-13.38,14.8-23.51,19.24-10.13,4.45-22.19,6.67-36.19,6.67h-45.92l19.24-18.15v58.82h-43.29ZM922.92,1287.32l-19.24-19.9h43.29c9.04,0,15.78-1.97,20.23-5.9,4.45-3.94,6.67-9.4,6.67-16.4s-2.22-12.68-6.67-16.62c-4.45-3.94-11.19-5.9-20.23-5.9h-43.29l19.24-19.9v84.62ZM974.31,1341.55l-38.04-55.76h46.14l38.26,55.76h-46.36Z" fill="#000" stroke-width="0"/>
      <path d="M1118.62,1344.61c-12.24,0-23.54-1.97-33.89-5.9-10.35-3.94-19.35-9.51-27-16.73-7.65-7.22-13.6-15.63-17.82-25.25-4.23-9.62-6.34-20.19-6.34-31.71s2.11-22.09,6.34-31.71c4.23-9.62,10.17-18.04,17.82-25.25,7.65-7.22,16.65-12.79,27-16.73,10.35-3.94,21.65-5.9,33.89-5.9s23.73,1.97,34,5.9c10.28,3.94,19.21,9.51,26.79,16.73,7.58,7.22,13.52,15.63,17.82,25.25,4.3,9.62,6.45,20.19,6.45,31.71s-2.15,22.12-6.45,31.81c-4.3,9.7-10.24,18.11-17.82,25.25-7.58,7.14-16.51,12.68-26.79,16.62-10.28,3.94-21.61,5.9-34,5.9ZM1118.62,1308.75c5.83,0,11.26-1.02,16.29-3.06,5.03-2.04,9.4-4.99,13.12-8.86,3.72-3.86,6.63-8.49,8.75-13.88,2.11-5.39,3.17-11.37,3.17-17.93s-1.06-12.72-3.17-18.04c-2.11-5.32-5.03-9.91-8.75-13.77-3.72-3.86-8.09-6.81-13.12-8.86-5.03-2.04-10.46-3.06-16.29-3.06s-11.26,1.02-16.29,3.06c-5.03,2.04-9.4,5-13.12,8.86-3.72,3.86-6.63,8.46-8.75,13.77-2.11,5.32-3.17,11.34-3.17,18.04s1.05,12.54,3.17,17.93c2.11,5.39,5.03,10.02,8.75,13.88,3.72,3.86,8.09,6.82,13.12,8.86,5.03,2.04,10.46,3.06,16.29,3.06Z" fill="#000" stroke-width="0"/>
      <path d="M1297.04,1344.61c-22.6,0-40.23-6.19-52.92-18.59-12.68-12.39-19.02-29.96-19.02-52.7v-84.84h43.29v83.53c0,13.12,2.59,22.52,7.76,28.21,5.17,5.69,12.28,8.53,21.32,8.53s16.1-2.84,21.21-8.53c5.1-5.68,7.65-15.09,7.65-28.21v-83.53h42.64v84.84c0,22.74-6.34,40.31-19.02,52.7-12.68,12.39-30.32,18.59-52.92,18.59Z" fill="#000" stroke-width="0"/>
      <path d="M1428.46,1341.55v-118.73h-47.01v-34.33h137.1v34.33h-46.79v118.73h-43.29Z" fill="#000" stroke-width="0"/>
      <path d="M1577.58,1308.09h80.03v33.45h-122.89v-153.06h120.04v33.45h-77.19v86.15ZM1574.52,1247.74h71.06v32.36h-71.06v-32.36Z" fill="#000" stroke-width="0"/>
      <path d="M538.59,1538.34v-122.45h14.34l54.93,92.54h-7.7l54.23-92.54h14.34l.18,122.45h-16.79l-.18-96.03h4.02l-48.28,81.17h-8.05l-48.63-81.17h4.37v96.03h-16.79Z" fill="#000" stroke-width="0"/>
      <path d="M810.6,1523.12h71.37v15.22h-88.86v-122.45h86.41v15.22h-68.92v92.01ZM809.02,1468.72h62.97v14.87h-62.97v-14.87Z" fill="#000" stroke-width="0"/>
      <path d="M997.77,1538.34v-122.45h51.6c13.06,0,24.58,2.57,34.55,7.7,9.97,5.13,17.73,12.31,23.27,21.52,5.54,9.21,8.31,19.88,8.31,32.01s-2.77,22.8-8.31,32.01c-5.54,9.21-13.29,16.39-23.27,21.52-9.97,5.13-21.49,7.7-34.55,7.7h-51.6ZM1015.26,1523.12h33.06c10.15,0,18.92-1.92,26.33-5.77,7.41-3.85,13.15-9.24,17.23-16.18,4.08-6.94,6.12-14.96,6.12-24.05s-2.04-17.26-6.12-24.14c-4.08-6.88-9.83-12.24-17.23-16.09-7.41-3.85-16.18-5.77-26.33-5.77h-33.06v92.01Z" fill="#000" stroke-width="0"/>
      <path d="M1229.72,1538.34v-122.45h17.49v122.45h-17.49Z" fill="#000" stroke-width="0"/>
      <path d="M1352.86,1538.34l55.45-122.45h17.32l55.63,122.45h-18.37l-49.51-112.65h7l-49.5,112.65h-18.02ZM1376.48,1507.73l4.72-13.99h68.92l5.07,13.99h-78.72Z" fill="#000" stroke-width="0"/>
    </g>
    <g>
      <path d="M1001.15,907.93c-23.23,0-44.66-3.73-64.29-11.2-19.64-7.47-36.71-18.04-51.22-31.73-14.52-13.69-25.79-29.66-33.81-47.91-8.02-18.25-12.03-38.3-12.03-60.14s4.01-41.89,12.03-60.14c8.02-18.25,19.29-34.22,33.81-47.91,14.52-13.69,31.59-24.26,51.22-31.73,19.63-7.47,41.06-11.2,64.29-11.2s45,3.73,64.5,11.2c19.49,7.47,36.43,18.04,50.81,31.73,14.37,13.69,25.64,29.66,33.8,47.91,8.15,18.25,12.24,38.3,12.24,60.14s-4.08,41.96-12.24,60.35c-8.16,18.39-19.43,34.36-33.8,47.91-14.38,13.55-31.32,24.06-50.81,31.52-19.5,7.47-41,11.2-64.5,11.2ZM1001.15,839.91c11.06,0,21.36-1.93,30.9-5.81,9.54-3.87,17.83-9.47,24.89-16.8,7.05-7.32,12.58-16.1,16.59-26.34,4.01-10.23,6.01-21.57,6.01-34.01s-2.01-24.12-6.01-34.22c-4.01-10.09-9.54-18.8-16.59-26.13-7.05-7.32-15.35-12.92-24.89-16.8-9.54-3.87-19.84-5.81-30.9-5.81s-21.36,1.94-30.9,5.81c-9.54,3.88-17.84,9.48-24.89,16.8-7.05,7.33-12.59,16.04-16.59,26.13-4.01,10.1-6.01,21.5-6.01,34.22s2,23.78,6.01,34.01c4,10.23,9.54,19.01,16.59,26.34,7.05,7.33,15.35,12.93,24.89,16.8,9.54,3.87,19.84,5.81,30.9,5.81Z" fill="#000" stroke-width="0"/>
      <path d="M1322.75,627.7c-3.34,29.32-18.27,56.03-41.46,74.22l-48.52,37.93c-16.63,13-41.24,3.97-45.29-16.74-1.13-5.78-2.58-11.47-4.34-17.05-6.95-22.06-17.78-41.9-32.47-59.52-14.69-17.62-32.71-31.99-54.06-43.13-21.37-11.13-45.52-18.21-72.45-21.28-26.63-3.03-51.67-1.55-75.14,4.46-23.48,6.04-44.44,15.97-62.86,29.81-18.42,13.85-33.44,30.74-45.03,50.69-2.9,4.99-5.52,10.14-7.87,15.45-8.57,19.37-34.66,22.72-47.97,6.25l-38.63-47.79c-18.48-22.94-27.04-52.33-23.7-81.65,9.22-80.95,100.14-124.17,168.79-80.12l88.7,57c28.73,18.49,64.41,22.55,96.62,11.01l99.27-35.58c16.74-6.01,33.54-7.74,49.47-5.93,57.45,6.55,104.15,58.69,96.94,121.97Z" fill="#000" stroke-width="0"/>
      <path d="M1277.43,955.86c3.5-29.3-4.89-58.73-23.29-81.78l-38.53-48.09c-13.21-16.48-39.26-13.37-47.99,5.86-2.44,5.37-5.15,10.56-8.16,15.59-11.85,19.86-26.98,36.67-45.35,50.43s-39.24,23.59-62.6,29.52c-23.39,5.9-48.55,7.23-75.49,4.01-26.64-3.18-50.7-10.4-72.18-21.66-21.48-11.29-39.61-25.78-54.37-43.5-14.76-17.72-25.49-37.62-32.19-59.7-1.68-5.52-3.05-11.14-4.11-16.85-3.89-20.82-28.53-30.1-45.3-17.14l-48.65,37.6c-23.29,18.07-38.4,44.69-41.91,73.99-9.67,80.89,68.95,143.91,145.98,116.87l99.55-35.02c32.25-11.37,67.94-7.1,96.67,11.55l88.52,57.5c14.92,9.71,30.9,15.27,46.83,17.17,57.48,6.87,114.99-33.11,122.55-96.35Z" fill="#000" stroke-width="0"/>
    </g>
  </g>
</svg>